<?xml version="1.0" encoding="UTF-8"?>
<svg id="Icons" fill="#000" enable-background="new 0 0 32 32" version="1.1" viewBox="0 0 32 32" xml:space="preserve" xmlns="http://www.w3.org/2000/svg"><path d="m30.9 13.6c-0.1-0.1-0.1-0.2-0.2-0.3l-4-4c-0.4-0.4-1-0.4-1.4 0s-0.4 1 0 1.4l2.3 2.3h-5.6v-10c0-0.6-0.4-1-1-1h-17c-0.1 0-0.3 0-0.4 0.1h-0.1s-0.1 0-0.1 0.1l-0.1 0.1c-0.1 0.1-0.2 0.2-0.2 0.3v0.1c-0.1 0.1-0.1 0.2-0.1 0.3v22c0 0.4 0.2 0.8 0.6 0.9l9 4c0.1 0.1 0.3 0.1 0.4 0.1 0.2 0 0.4-0.1 0.5-0.2 0.3-0.2 0.5-0.5 0.5-0.8v-3h7c0.6 0 1-0.4 1-1v-10h5.6l-2.3 2.3c-0.4 0.4-0.4 1 0 1.4 0.2 0.2 0.5 0.3 0.7 0.3s0.5-0.1 0.7-0.3l4-4c0.1-0.1 0.2-0.2 0.2-0.3 0.1-0.3 0.1-0.5 0-0.8zm-20.9 7.4c0 0.6-0.4 1-1 1s-1-0.4-1-1v-4c0-0.6 0.4-1 1-1s1 0.4 1 1v4zm10-11v14h-6v-17c0-0.4-0.2-0.8-0.6-0.9l-4.7-2.1h11.3v6z"/></svg>
