<svg width="133" height="65" viewBox="0 0 133 65" fill="none" xmlns="http://www.w3.org/2000/svg">
<g clip-path="url(#clip0_1_254)">
<path d="M69.6328 15.4169L75.8652 15.0315C76.0074 16.0064 76.2681 16.7319 76.6946 17.2533C77.3819 18.0695 78.3298 18.4776 79.5857 18.4776C80.5099 18.4776 81.2446 18.2736 81.7422 17.8428C82.2162 17.5027 82.5005 16.9586 82.5005 16.3918C82.5005 15.8477 82.2399 15.3262 81.7896 14.9861C81.3157 14.578 80.2019 14.1699 78.4483 13.8072C75.5809 13.195 73.5192 12.3789 72.3106 11.336C71.102 10.3611 70.4148 8.93273 70.4622 7.41371C70.4622 6.3708 70.794 5.32789 71.4101 4.46636C72.121 3.49147 73.0926 2.72062 74.2538 2.28986C75.5098 1.7684 77.2634 1.49634 79.4673 1.49634C82.1688 1.49634 84.2305 1.97245 85.6523 2.94734C87.0742 3.89956 87.9273 5.44125 88.188 7.54974L82.0266 7.88982C81.8607 6.98294 81.5289 6.32546 80.9839 5.89469C80.4389 5.46392 79.7279 5.25988 78.8037 5.25988C78.0454 5.25988 77.4767 5.41858 77.0975 5.71332C76.742 5.98538 76.5051 6.39347 76.5288 6.84691C76.5288 7.18699 76.7183 7.5044 77.0027 7.70844C77.3108 7.98051 78.0454 8.2299 79.2066 8.45662C82.074 9.04609 84.112 9.63556 85.3679 10.2477C86.6239 10.8598 87.5244 11.608 88.0695 12.4922C88.6382 13.3991 87.9273 14.4647 87.9036 15.5303C87.9036 16.7999 88.5197 18.0468 87.7614 19.1124C86.9794 20.2233 85.8893 21.0849 84.6096 21.6063C83.2589 22.1731 81.5526 22.4679 79.5147 22.4679C75.9126 22.4679 73.4244 21.8104 72.0262 20.4727C70.6281 19.1351 69.7987 17.4574 69.6328 15.4169ZM3.49294 22.1278V1.85909H14.4175C16.4318 1.85909 17.9958 2.01779 19.0622 2.35787C20.1049 2.67528 21.0291 3.33276 21.6453 4.21697C22.3325 5.19186 22.6643 6.32546 22.6406 7.5044C22.7116 9.49953 21.6453 11.404 19.8205 12.4015C19.1096 12.787 18.3276 13.059 17.5219 13.195C18.1143 13.3538 18.7068 13.6258 19.2281 13.9432C19.631 14.2606 19.9627 14.6234 20.2708 15.0088C20.6263 15.3942 20.9343 15.825 21.195 16.2784L24.3705 22.1505H16.9294L13.4222 15.9157C12.972 15.1222 12.5928 14.6007 12.2373 14.3513C11.7634 14.0339 11.1946 13.8752 10.6259 13.8752H10.0572V22.1051H3.49294V22.1278ZM10.0572 10.0663H12.8298C13.4222 10.021 13.991 9.93029 14.5597 9.79426C14.9863 9.72625 15.3654 9.49953 15.6261 9.15945C16.2659 8.34326 16.1711 7.18699 15.3891 6.48416C14.9626 6.14408 14.1331 5.96271 12.9483 5.96271H10.0572V10.0663ZM2 39.4945L8.23245 39.1091C8.37464 40.0839 8.63531 40.8094 9.06187 41.3309C9.7254 42.1471 10.697 42.5779 11.953 42.5779C12.8772 42.5779 13.6118 42.3738 14.1094 41.943C14.5834 41.5803 14.8678 41.0588 14.8678 40.492C14.8678 39.9479 14.6071 39.4265 14.1568 39.0864C13.6829 38.6783 12.5691 38.2702 10.7918 37.9074C7.92438 37.2953 5.8627 36.4791 4.65412 35.4362C3.44555 34.4613 2.75832 33.033 2.80572 31.514C2.80572 30.4711 3.13748 29.4281 3.75362 28.5666C4.46454 27.5917 5.43614 26.8209 6.59732 26.3901C7.85329 25.8687 9.60691 25.5966 11.8108 25.5966C14.5123 25.5966 16.574 26.0727 17.9958 27.0476C19.4177 28.0225 20.2471 29.5415 20.5078 31.65L14.3464 31.9901C14.1805 31.0832 13.8488 30.4257 13.3037 29.9949C12.7824 29.5642 12.0478 29.3601 11.1236 29.3828C10.3652 29.3828 9.79649 29.5415 9.41733 29.8589C9.03817 30.131 8.82489 30.5391 8.84859 30.9925C8.84859 31.3326 9.03817 31.65 9.32254 31.854C9.63061 32.1261 10.3652 32.3755 11.5264 32.6022C14.3938 33.1917 16.4318 33.7811 17.6878 34.3933C18.9437 35.0054 19.8442 35.7536 20.3893 36.6378C20.958 37.5447 21.2424 38.5876 21.2424 39.6305C21.2424 40.9001 20.8395 42.1471 20.1049 43.2127C19.3229 44.3236 18.2328 45.1851 16.9531 45.7066C15.6024 46.2734 13.8962 46.5681 11.8582 46.5681C8.25615 46.5681 5.76791 45.9106 4.36975 44.573C2.9716 43.2127 2.18958 41.5349 2 39.4945Z" fill="black"/>
<path d="M33.5177 37.9074L39.2525 39.5625C38.9444 40.9455 38.3046 42.2605 37.4278 43.4167C36.6221 44.437 35.5557 45.2305 34.3471 45.7519C33.1148 46.2734 31.5508 46.5454 29.655 46.5454C27.3563 46.5454 25.4605 46.228 24.015 45.5932C22.5457 44.9584 21.2897 43.8248 20.2234 42.2151C19.157 40.6054 18.6356 38.5423 18.6356 36.0257C18.6356 32.6702 19.5598 30.0856 21.4319 28.2945C23.304 26.5035 25.9345 25.5966 29.3469 25.5966C32.0247 25.5966 34.1101 26.118 35.6505 27.1383C37.1671 28.1812 38.3046 29.7682 39.0629 31.8994L33.2807 33.1237C33.1385 32.6476 32.9252 32.1714 32.6409 31.7634C32.2854 31.2872 31.8351 30.9245 31.2901 30.6524C30.7451 30.3804 30.1289 30.267 29.5128 30.267C28.0198 30.267 26.8824 30.8338 26.1003 31.9901C25.5079 32.8289 25.1998 34.1666 25.1998 35.9803C25.1998 38.2248 25.5553 39.7665 26.2662 40.6054C26.9772 41.4443 27.9725 41.8524 29.2758 41.8524C30.5318 41.8524 31.4797 41.5123 32.1195 40.8548C32.7594 40.152 33.2333 39.1771 33.5177 37.9074ZM46.9068 25.9367H53.4473V33.033H60.604V25.9367H67.1919V46.2054H60.604V37.9981H53.4473V46.2054H46.9068V25.9367V25.9367Z" fill="black"/>
<path d="M66.2914 36.071C66.2914 32.7609 67.263 30.1763 69.1825 28.3399C71.102 26.5035 73.8035 25.5739 77.2396 25.5739C80.7706 25.5739 83.4721 26.4808 85.3916 28.2946C87.3111 30.1083 88.259 32.6476 88.259 35.9123C88.259 38.2929 87.8325 40.22 87.003 41.739C86.1973 43.2354 84.9413 44.4596 83.401 45.2758C81.8133 46.1147 79.8464 46.5455 77.5003 46.5455C75.1069 46.5455 73.14 46.1827 71.5759 45.4572C69.9645 44.6864 68.6374 43.4848 67.7606 42.0111C66.789 40.424 66.2914 38.4516 66.2914 36.071ZM72.8319 36.0937C72.8319 38.1342 73.2348 39.6079 74.0168 40.5147C74.7988 41.3989 75.8889 41.8524 77.2633 41.8524C78.6615 41.8524 79.7516 41.4216 80.5336 40.5374C81.3156 39.6532 81.6948 38.0888 81.6948 35.8216C81.6948 33.9172 81.2919 32.5115 80.4862 31.65C79.6805 30.7658 78.5904 30.335 77.2159 30.335C76.0074 30.2897 74.8462 30.7885 74.0405 31.6727C73.2348 32.5569 72.8319 34.0306 72.8319 36.0937ZM94.9654 36.071C94.9654 32.7609 95.937 30.1763 97.8565 28.3399C100.326 28.4547 104.24 27.5566 107.099 25.5059C110.629 25.5059 112.17 26.4808 114.066 28.2946C115.961 30.1083 116.933 32.6476 116.933 35.9123C116.933 38.2929 116.506 40.22 115.677 41.739C114.871 43.2354 113.615 44.4596 112.075 45.2758C110.487 46.1147 108.52 46.5455 106.174 46.5455C103.781 46.5455 101.814 46.1827 100.25 45.4572C98.6385 44.6864 97.3115 43.4848 96.4347 42.0111C95.4631 40.424 94.9654 38.4516 94.9654 36.071ZM101.506 36.0937C101.506 38.1342 101.909 39.6079 102.691 40.5147C103.473 41.3989 104.563 41.8524 105.937 41.8524C107.336 41.8524 108.426 41.4216 109.208 40.5374C109.99 39.6532 110.369 38.0888 110.369 35.8216C110.369 33.9172 109.966 32.5115 109.16 31.65C108.355 30.7658 107.264 30.335 105.89 30.335C104.681 30.2897 103.497 30.7885 102.715 31.6727C101.909 32.5569 101.506 34.0306 101.506 36.0937Z" fill="black"/>
<path d="M116.246 25.9367H122.786V41.2176H133V46.2054H116.222V25.9367H116.246Z" fill="black"/>
<path d="M109.037 24.767C115.622 20.0195 117.652 11.9717 113.572 6.79177C109.492 1.61184 100.846 1.26128 94.2614 6.00878C87.6765 10.7563 85.6459 18.8041 89.726 23.984C93.8061 29.1639 102.452 29.5145 109.037 24.767Z" stroke="black" stroke-width="4" stroke-miterlimit="10"/>
<path d="M94.9891 13.8979L97.3588 12.3108L100.274 16.2784C100.771 16.9132 101.15 17.5934 101.435 18.3416C101.601 18.9084 101.553 19.5205 101.316 20.0646C101.008 20.7448 100.511 21.3116 99.847 21.7197C99.065 22.2411 98.4015 22.5359 97.8328 22.6266C97.2877 22.7173 96.719 22.6266 96.1976 22.3998C95.6289 22.1278 95.1312 21.7424 94.7521 21.2436L96.7901 19.4298C96.9559 19.6792 97.1692 19.9059 97.4062 20.0873C97.5721 20.2007 97.7617 20.2687 97.9749 20.2687C98.1408 20.2687 98.3067 20.2007 98.4252 20.11C98.6622 19.974 98.8281 19.7019 98.8044 19.4298C98.7333 19.0444 98.5674 18.659 98.3067 18.3642L94.9891 13.8979V13.8979ZM102.098 16.4145L104.255 14.7821C104.492 15.0541 104.8 15.2582 105.132 15.3716C105.606 15.5076 106.103 15.4169 106.506 15.1222C106.79 14.9408 107.027 14.6914 107.122 14.374C107.264 13.9659 107.027 13.5125 106.601 13.3764C106.53 13.3538 106.459 13.3311 106.388 13.3311C106.103 13.3084 105.606 13.4218 104.871 13.7165C103.662 14.1926 102.714 14.374 102.004 14.306C101.316 14.238 100.676 13.8979 100.297 13.3311C100.013 12.9457 99.8707 12.4922 99.847 12.0388C99.847 11.5173 99.9892 10.9959 100.297 10.5651C100.748 9.95296 101.293 9.43151 101.956 9.02342C102.951 8.36593 103.828 8.04852 104.587 8.04852C105.345 8.04852 106.056 8.3886 106.719 9.09143L104.587 10.7011C104.16 10.1797 103.354 10.0663 102.809 10.4744L102.738 10.5424C102.501 10.6785 102.335 10.8825 102.24 11.1319C102.169 11.3133 102.217 11.5173 102.335 11.676C102.43 11.7894 102.572 11.8801 102.738 11.8801C102.928 11.9027 103.259 11.8121 103.733 11.608C104.918 11.1319 105.819 10.8598 106.435 10.7692C106.956 10.6785 107.501 10.7238 107.999 10.9279C108.449 11.1092 108.828 11.4266 109.089 11.8121C109.421 12.2655 109.61 12.8096 109.634 13.3764C109.658 13.9659 109.492 14.5327 109.16 15.0315C108.734 15.6436 108.189 16.1651 107.549 16.5732C106.245 17.4347 105.179 17.7974 104.326 17.6614C103.402 17.5254 102.643 17.0719 102.098 16.4145V16.4145Z" fill="black"/>
</g>
<path d="M10.6374 48.9455V56.9015C10.6374 60.2495 9.08935 61.9235 5.99335 61.9235C4.88935 61.9235 3.94735 61.7975 3.16735 61.5455L3.43735 58.6115C3.86935 58.7075 4.42135 58.7555 5.09335 58.7555C5.66935 58.7555 6.12535 58.6055 6.46135 58.3055C6.79735 57.9935 6.96535 57.5495 6.96535 56.9735V48.9455H10.6374ZM12.2599 60.5915L13.3039 57.6035C14.4439 58.1555 15.5779 58.4315 16.7059 58.4315C17.8099 58.4315 18.3619 58.1615 18.3619 57.6215C18.3619 57.4895 18.3259 57.3815 18.2539 57.2975C18.1819 57.2015 18.0559 57.1175 17.8759 57.0455C17.7079 56.9735 17.5279 56.9135 17.3359 56.8655C17.1559 56.8175 16.8979 56.7455 16.5619 56.6495C16.2379 56.5535 15.9319 56.4575 15.6439 56.3615C14.5519 55.9775 13.7419 55.5215 13.2139 54.9935C12.6979 54.4535 12.4399 53.7095 12.4399 52.7615C12.4399 51.4535 12.8959 50.4575 13.8079 49.7735C14.7199 49.0775 15.9199 48.7295 17.4079 48.7295C18.3079 48.7295 19.1659 48.8555 19.9819 49.1075C20.7979 49.3475 21.4219 49.6535 21.8539 50.0255L20.3419 52.6895C19.5139 52.0775 18.5599 51.7715 17.4799 51.7715C16.6279 51.7715 16.2019 52.0355 16.2019 52.5635C16.2019 52.7075 16.2379 52.8335 16.3099 52.9415C16.3819 53.0375 16.5079 53.1275 16.6879 53.2115C16.8679 53.2835 17.0419 53.3495 17.2099 53.4095C17.3899 53.4575 17.6539 53.5295 18.0019 53.6255C18.3619 53.7215 18.6799 53.8115 18.9559 53.8955C20.0839 54.2555 20.9059 54.6935 21.4219 55.2095C21.9499 55.7135 22.2139 56.4575 22.2139 57.4415C22.2139 58.8335 21.7159 59.9015 20.7199 60.6455C19.7359 61.3895 18.4579 61.7615 16.8859 61.7615C15.1099 61.7615 13.5679 61.3715 12.2599 60.5915ZM25.4028 62.4455H22.7928L26.9328 48.0095H29.4708L25.4028 62.4455ZM39.1004 52.0055H34.1144V54.5435H38.4524V57.6035H34.1144V61.5455H30.5144V48.9455H39.1004V52.0055ZM50.1308 52.0055H44.7668V53.6975H49.2668V56.7575H44.7668V58.4855H50.1308V61.5455H41.1668V48.9455H50.1308V52.0055ZM57.8218 52.5635L56.7058 49.8815C57.9178 49.1135 59.3398 48.7295 60.9718 48.7295C62.5438 48.7295 63.8098 49.0475 64.7698 49.6835C65.7418 50.3075 66.2278 51.2555 66.2278 52.5275C66.2278 53.3315 66.0178 54.0755 65.5978 54.7595C65.1778 55.4315 64.5238 56.1215 63.6358 56.8295L61.6918 58.3595H66.6058V61.5455H56.9758V58.6475L60.4678 55.7315C61.1758 55.1435 61.6558 54.6935 61.9078 54.3815C62.1718 54.0695 62.3038 53.7155 62.3038 53.3195C62.3038 52.3715 61.6438 51.8975 60.3238 51.8975C59.4358 51.8975 58.6018 52.1195 57.8218 52.5635ZM69.7959 50.4215C70.9479 49.2935 72.3819 48.7295 74.0979 48.7295C75.8139 48.7295 77.2419 49.2935 78.3819 50.4215C79.5339 51.5375 80.1099 53.1275 80.1099 55.1915C80.1099 57.3395 79.5399 58.9895 78.3999 60.1415C77.2599 61.2815 75.8259 61.8515 74.0979 61.8515C72.3699 61.8515 70.9359 61.2815 69.7959 60.1415C68.6559 58.9895 68.0859 57.3395 68.0859 55.1915C68.0859 53.1275 68.6559 51.5375 69.7959 50.4215ZM74.0979 51.8075C72.5979 51.8075 71.8479 52.9355 71.8479 55.1915C71.8479 57.5795 72.5979 58.7735 74.0979 58.7735C75.6099 58.7735 76.3659 57.5795 76.3659 55.1915C76.3659 52.9355 75.6099 51.8075 74.0979 51.8075ZM82.7476 52.5635L81.6316 49.8815C82.8436 49.1135 84.2656 48.7295 85.8976 48.7295C87.4696 48.7295 88.7356 49.0475 89.6956 49.6835C90.6676 50.3075 91.1536 51.2555 91.1536 52.5275C91.1536 53.3315 90.9436 54.0755 90.5236 54.7595C90.1036 55.4315 89.4496 56.1215 88.5616 56.8295L86.6176 58.3595H91.5316V61.5455H81.9016V58.6475L85.3936 55.7315C86.1016 55.1435 86.5816 54.6935 86.8336 54.3815C87.0976 54.0695 87.2296 53.7155 87.2296 53.3195C87.2296 52.3715 86.5696 51.8975 85.2496 51.8975C84.3616 51.8975 83.5276 52.1195 82.7476 52.5635ZM94.5777 52.5635L93.4617 49.8815C94.6737 49.1135 96.0957 48.7295 97.7277 48.7295C99.2997 48.7295 100.566 49.0475 101.526 49.6835C102.498 50.3075 102.984 51.2555 102.984 52.5275C102.984 53.3315 102.774 54.0755 102.354 54.7595C101.934 55.4315 101.28 56.1215 100.392 56.8295L98.4477 58.3595H103.362V61.5455H93.7317V58.6475L97.2237 55.7315C97.9317 55.1435 98.4117 54.6935 98.6637 54.3815C98.9277 54.0695 99.0597 53.7155 99.0597 53.3195C99.0597 52.3715 98.3997 51.8975 97.0797 51.8975C96.1917 51.8975 95.3577 52.1195 94.5777 52.5635ZM115.822 64.8755L110.296 61.7435C109.576 61.6115 108.91 61.3775 108.298 61.0415C107.686 60.7055 107.14 60.2735 106.66 59.7455C106.18 59.2175 105.802 58.5635 105.526 57.7835C105.25 56.9915 105.112 56.1155 105.112 55.1555C105.112 54.0755 105.292 53.1155 105.652 52.2755C106.024 51.4355 106.516 50.7635 107.128 50.2595C107.752 49.7555 108.448 49.3775 109.216 49.1255C109.984 48.8615 110.8 48.7295 111.664 48.7295C112.528 48.7295 113.344 48.8615 114.112 49.1255C114.88 49.3775 115.57 49.7555 116.182 50.2595C116.806 50.7635 117.298 51.4355 117.658 52.2755C118.03 53.1155 118.216 54.0755 118.216 55.1555C118.216 56.1875 118.048 57.1235 117.712 57.9635C117.388 58.8035 116.956 59.4935 116.416 60.0335C115.888 60.5615 115.258 60.9815 114.526 61.2935L117.478 62.3015L115.822 64.8755ZM108.982 55.2095C108.982 56.2775 109.222 57.0995 109.702 57.6755C110.194 58.2515 110.848 58.5395 111.664 58.5395C112.48 58.5395 113.128 58.2515 113.608 57.6755C114.1 57.0995 114.346 56.2775 114.346 55.2095C114.346 54.1655 114.106 53.3795 113.626 52.8515C113.146 52.3235 112.492 52.0595 111.664 52.0595C110.836 52.0595 110.182 52.3235 109.702 52.8515C109.222 53.3795 108.982 54.1655 108.982 55.2095ZM121.228 52.5635L119.788 50.2595C120.988 49.2395 122.446 48.7295 124.162 48.7295C125.83 48.7295 127.09 49.0235 127.942 49.6115C128.794 50.1875 129.22 50.9195 129.22 51.8075C129.22 53.1875 128.536 54.1655 127.168 54.7415V54.8135C127.948 55.0175 128.566 55.3535 129.022 55.8215C129.49 56.2895 129.724 56.8715 129.724 57.5675C129.724 58.9235 129.22 59.9795 128.212 60.7355C127.204 61.4915 125.95 61.8695 124.45 61.8695C122.362 61.8695 120.736 61.3775 119.572 60.3935L120.994 57.7475C121.822 58.3955 122.848 58.7195 124.072 58.7195C124.648 58.7195 125.092 58.6115 125.404 58.3955C125.728 58.1675 125.89 57.8495 125.89 57.4415C125.89 56.7695 125.248 56.4335 123.964 56.4335H121.876V53.8415H123.766C124.894 53.8415 125.458 53.4815 125.458 52.7615C125.458 52.4855 125.314 52.2575 125.026 52.0775C124.738 51.8975 124.33 51.8075 123.802 51.8075C122.818 51.8075 121.96 52.0595 121.228 52.5635Z" fill="black"/>
<defs>
<clipPath id="clip0_1_254">
<rect width="131" height="46.5455" fill="white" transform="translate(2)"/>
</clipPath>
</defs>
</svg>
